<svg version="1.1" id="Layer_1" xmlns="http://www.w3.org/2000/svg" xmlns:xlink="http://www.w3.org/1999/xlink" x="0px" y="0px"
	 width="100%" viewBox="0 0 200 200" enable-background="new 0 0 200 200" xml:space="preserve">
<path fill="#FEFDFD" opacity="1.000000" stroke="none" 
	d="
M109.000000,201.000000 
	C72.689072,201.000000 36.878147,201.000000 1.033611,201.000000 
	C1.033611,134.397446 1.033611,67.794861 1.033611,1.096142 
	C67.560760,1.096142 134.121704,1.096142 200.841324,1.096142 
	C200.841324,67.666367 200.841324,134.333145 200.841324,201.000000 
	C170.461807,201.000000 139.980911,201.000000 109.000000,201.000000 
M52.994038,91.996521 
	C52.994038,91.996521 52.945217,92.030281 52.808716,91.580246 
	C52.619907,91.286003 52.351242,91.152603 51.832874,90.888847 
	C51.832874,90.888847 51.520645,90.761734 51.116280,90.085655 
	C46.678818,87.565331 49.274876,84.165695 50.009399,81.001038 
	C50.009399,81.001038 50.004673,80.972710 50.828545,80.820908 
	C52.961407,80.576492 55.093838,80.138908 57.227238,80.134102 
	C60.233906,80.127319 62.372089,79.190903 62.994061,76.021408 
	C62.994061,76.021408 63.045464,76.064491 63.635818,75.744675 
	C67.568932,71.887505 69.429619,67.594429 67.167877,62.032600 
	C66.627571,60.703949 67.264595,58.896534 67.206703,57.258316 
	C67.206703,57.258316 67.309204,57.383358 67.882690,57.260506 
	C68.291153,56.870106 68.699615,56.479706 69.013275,56.013142 
	C69.013275,56.013142 69.080536,56.114452 69.666000,56.040512 
	C70.097946,55.653404 70.529892,55.266293 71.650650,54.867443 
	C72.109856,54.874828 72.569061,54.882210 73.413116,55.343353 
	C73.938858,55.570232 74.464600,55.797112 74.995346,55.995651 
	C74.995346,55.995651 74.972282,56.014416 75.352242,56.584728 
	C78.693398,58.867260 81.990463,61.474865 86.864075,58.021866 
	C89.260315,56.678776 91.656563,55.335690 94.277473,53.815083 
	C94.277473,53.815083 94.251236,53.529949 94.803535,53.058338 
	C95.549019,51.044937 96.294502,49.031536 96.994362,47.011677 
	C96.994362,47.011677 97.030052,47.041634 97.707832,46.622711 
	C100.113274,46.455227 102.518723,46.287743 104.967445,46.024113 
	C104.967445,46.024113 104.879959,46.082962 105.050278,46.758400 
	C106.229332,47.999001 107.330727,49.339249 108.665764,50.379700 
	C108.882088,50.548294 110.880219,49.110203 110.795494,48.881710 
	C109.809761,46.223351 109.129791,42.021320 107.302536,41.408749 
	C103.710342,40.204487 99.269310,40.322060 95.533798,41.277763 
	C93.728584,41.739620 92.500465,45.231369 91.406250,47.538666 
	C89.045517,52.516598 84.419609,54.657440 79.002647,53.003353 
	C79.002647,53.003353 79.023079,52.987366 78.680565,52.424461 
	C77.128494,51.601601 75.576424,50.778744 74.005127,50.003517 
	C74.005127,50.003517 74.043930,49.969391 73.633575,49.370636 
	C71.982262,49.794640 70.330948,50.218639 68.931412,50.910534 
	C68.931412,50.910534 68.712105,50.615475 68.128807,50.726357 
	C67.721489,51.127403 67.314163,51.528446 66.985283,51.991295 
	C66.985283,51.991295 66.938683,51.902977 66.316391,51.990658 
	C65.546883,52.664013 64.777367,53.337364 64.000000,54.000000 
	C64.000000,54.000000 64.009422,54.009571 63.471497,54.069500 
	C63.270954,54.352108 63.070415,54.634716 62.971455,54.967842 
	C62.971455,54.967842 62.906590,54.874771 62.130970,55.097095 
	C61.949276,57.499268 61.765945,59.901314 61.586315,62.303638 
	C61.370525,65.189606 61.157890,68.075798 61.002884,70.993950 
	C61.002884,70.993950 60.956238,70.945084 60.392944,71.233620 
	C59.890491,72.138084 59.388042,73.042557 58.974476,73.963715 
	C58.974476,73.963715 58.922661,73.889595 58.168922,74.226204 
	C56.063911,74.519974 53.933666,75.183304 51.858387,75.041611 
	C44.130013,74.513954 44.904774,81.079422 42.983639,85.379143 
	C41.119034,89.552361 43.977036,91.380714 47.147072,93.556450 
	C47.362617,93.831276 47.644802,93.977509 48.233822,94.561363 
	C49.140987,95.389725 50.048153,96.218086 51.003586,97.013985 
	C51.003586,97.013985 50.950375,97.028244 50.822945,97.743484 
	C51.532230,103.096909 49.953445,107.315956 45.051937,110.124077 
	C42.397038,111.645073 41.704414,113.965683 43.026062,116.883934 
	C43.768734,118.523796 44.366554,120.269043 44.739079,122.028336 
	C45.482044,125.537094 47.401382,127.167694 51.677979,126.710983 
	C52.125771,126.700363 52.573566,126.689743 53.759842,126.934113 
	C55.477566,127.328751 57.195286,127.723389 58.961658,128.032562 
	C58.961658,128.032562 58.869278,128.066284 58.946346,128.696854 
	C59.614807,129.487396 60.283268,130.277924 61.001369,131.011169 
	C61.001369,131.011169 60.931355,131.040146 61.143398,131.849350 
	C61.224590,134.660873 61.399323,137.473755 61.358639,140.283508 
	C61.323399,142.716949 59.173233,145.563614 62.982826,147.014709 
	C62.982826,147.014709 62.882309,147.098648 63.096313,147.637802 
	C63.596664,147.910721 64.097015,148.183640 64.967033,148.248398 
	C64.967033,148.248398 64.619431,148.491638 64.920547,148.996216 
	C65.599968,149.354858 66.279388,149.713501 66.989861,150.000992 
	C66.989861,150.000992 66.928810,150.048935 67.165222,150.593307 
	C67.686554,150.852280 68.207893,151.111252 68.792351,151.251572 
	C68.792351,151.251572 68.662277,151.285400 69.000214,151.916702 
	C70.676468,151.949585 72.352730,151.982468 74.003624,151.995453 
	C74.003624,151.995453 74.007011,152.027161 74.594292,151.990097 
	C74.853386,151.715073 75.112473,151.440048 75.721977,151.135590 
	C75.721977,151.135590 75.966858,150.883224 76.671600,150.828247 
	C79.890053,148.038315 83.624588,147.166870 87.033363,149.789764 
	C89.291039,151.526947 90.624596,154.449036 92.429993,156.795959 
	C93.563461,158.269409 94.567528,160.550232 96.036423,160.941391 
	C104.697090,163.247803 108.698761,161.061691 111.926476,152.878830 
	C112.167809,152.266998 112.274971,151.602234 112.850891,150.627792 
	C112.923424,150.468079 112.995964,150.308380 113.839600,150.079620 
	C118.701859,147.761276 123.111588,148.134125 127.503395,151.570206 
	C128.717560,152.520157 131.152908,151.909271 133.001389,151.997025 
	C133.001389,151.997025 133.010712,152.027039 133.625381,151.935944 
	C134.393951,151.275436 135.162521,150.614929 135.983170,150.002686 
	C135.983170,150.002686 135.967102,149.933548 136.498978,149.891068 
	C136.701462,149.614151 136.903961,149.337219 137.025970,149.016800 
	C137.025970,149.016800 137.062851,149.100510 137.681992,148.999741 
	C138.453873,148.329987 139.225739,147.660233 139.999069,146.999390 
	C139.999069,146.999390 139.989487,146.995636 140.738983,146.799561 
	C141.924911,144.360275 140.670074,133.533417 138.828674,131.813919 
	C138.212418,131.238464 136.865891,130.754837 136.238205,131.049469 
	C135.375107,131.454620 134.371948,132.617477 134.333984,133.494858 
	C134.264450,135.102539 134.659103,136.810699 135.216431,138.347809 
	C136.262390,141.232559 136.422012,143.791794 133.266922,145.895538 
	C133.266922,145.895538 133.014114,146.193817 132.528214,146.225204 
	C132.216736,146.387146 132.029358,146.640778 131.996841,147.005630 
	C131.996841,147.005630 131.992661,146.969482 131.255814,146.981186 
	C129.293350,146.175903 127.330887,145.370621 125.150467,145.010712 
	C125.150467,145.010712 125.354630,144.562683 124.968849,143.996429 
	C118.018631,140.066605 108.622139,145.028427 106.000305,154.000870 
	C106.000305,154.000870 106.008720,154.002182 105.657600,154.208405 
	C105.435890,154.413620 105.363350,154.662308 105.094902,155.340851 
	C105.040588,155.504776 104.986267,155.668686 104.077484,155.888077 
	C100.380699,156.114105 97.424667,156.143524 95.764153,151.375809 
	C92.694870,142.563156 82.491226,140.223740 74.996056,146.004730 
	C74.996056,146.004730 74.989822,145.972672 74.397461,146.015747 
	C73.942200,146.384384 73.486938,146.753006 72.340973,147.131805 
	C71.880615,147.128357 71.420258,147.124908 70.620522,146.641479 
	C70.110321,146.383987 69.600121,146.126480 69.019333,145.974533 
	C69.019333,145.974533 69.122665,145.900742 68.822044,145.284439 
	C67.582832,144.374863 66.343628,143.465286 65.831604,141.922379 
	C68.099495,135.914749 66.920975,130.600647 62.578693,125.212296 
	C61.164036,124.133408 59.893875,122.535042 58.302261,122.092323 
	C55.637962,121.351212 52.768559,121.347443 50.004372,121.002777 
	C50.004372,121.002777 49.970470,121.013794 49.852650,120.211075 
	C49.566544,117.806519 49.280437,115.401962 49.445988,112.484558 
	C50.965462,111.322159 52.484936,110.159752 53.999702,108.999603 
	C53.999702,108.999603 53.996964,109.003761 54.763660,108.719200 
	C56.969135,104.536278 56.544033,95.636551 54.000179,93.000748 
	C54.000179,93.000748 54.020325,92.989914 53.869411,92.491913 
	C53.570389,92.345139 53.271366,92.198372 52.994038,91.996521 
M79.285690,76.014236 
	C79.375938,76.191360 79.466179,76.368484 80.075195,76.341743 
	C80.437134,75.936119 80.799072,75.530487 81.072876,75.089500 
	C81.072876,75.089500 81.087692,75.183296 81.702698,75.043205 
	C82.504692,74.388313 83.306686,73.733414 84.035660,73.029335 
	C84.035660,73.029335 84.047180,73.116608 84.727043,73.027672 
	C85.687981,72.417969 86.648918,71.808273 87.843407,71.246201 
	C87.843407,71.246201 87.988716,71.057266 88.780289,71.000244 
	C91.811356,70.281410 94.909012,69.758354 97.844917,68.759750 
	C99.276573,68.272789 100.406548,66.898842 101.673073,65.926392 
	C100.155624,65.342323 98.437210,63.982403 97.156952,64.314026 
	C92.614380,65.490692 88.221321,67.244530 83.875793,68.819252 
	C83.875793,68.819252 83.848824,68.711143 83.197685,68.806366 
	C82.345245,69.437538 81.492813,70.068710 80.790848,70.724014 
	C80.790848,70.724014 80.681526,70.617836 80.222397,70.713280 
	C79.920860,70.846313 79.709122,71.065903 79.499298,71.452660 
	C79.499298,71.452660 79.380363,71.461456 78.795876,71.725342 
	C76.504272,74.142906 74.212677,76.560471 71.453812,79.221161 
	C71.320160,79.537010 71.186508,79.852859 70.593506,80.488800 
	C70.363609,80.980515 70.133713,81.472229 69.985382,81.977867 
	C69.985382,81.977867 69.935677,81.911697 69.384804,82.288162 
	C68.880600,83.508728 68.376389,84.729286 67.961998,85.963341 
	C67.961998,85.963341 67.912392,85.887260 67.386848,86.312279 
	C66.713272,88.211006 66.039688,90.109741 65.014061,92.718216 
	C63.945747,104.082283 64.644318,115.005753 72.965172,124.606567 
	C73.261528,124.816551 73.557884,125.026535 73.876160,125.115471 
	C73.876160,125.115471 73.756813,125.145264 73.950623,125.762863 
	C74.908661,126.601151 75.866707,127.439430 76.849648,128.151184 
	C76.849648,128.151184 76.748604,128.231308 76.915871,128.750534 
	C77.261047,129.173492 77.606224,129.596451 77.826210,130.783600 
	C78.145531,131.721268 78.464851,132.658920 78.870888,134.087158 
	C79.231903,134.396942 79.592918,134.706711 80.328827,135.631561 
	C85.222084,136.139404 90.115341,136.647263 95.646439,137.518997 
	C96.129951,137.546555 96.613472,137.574097 97.956818,137.890045 
	C106.378830,138.886505 113.745125,135.767349 120.586540,131.506973 
	C141.482193,118.494537 143.337082,88.652496 124.251358,73.139778 
	C122.110992,71.400108 119.231865,70.569366 116.695328,69.317116 
	C116.455299,69.814606 116.215271,70.312103 115.975235,70.809593 
	C117.056839,71.518753 118.134338,72.234268 119.220680,72.936111 
	C130.780350,80.404266 136.756744,93.398026 133.947052,106.937950 
	C131.166473,120.337578 123.813271,129.992126 109.381401,132.267090 
	C104.987274,132.959778 100.472374,132.886353 95.506302,133.013382 
	C95.331032,133.030014 95.155769,133.046646 94.403862,132.751053 
	C92.928444,132.388367 91.453018,132.025696 89.600151,131.243881 
	C89.435043,131.153931 89.269928,131.063995 89.065887,130.233414 
	C87.915016,124.762627 83.849670,125.030533 79.578545,125.477448 
	C79.578545,125.477448 79.518066,125.377869 79.281670,124.898354 
	C78.860809,124.589615 78.439949,124.280884 77.999695,124.000305 
	C77.999695,124.000305 78.028122,123.981216 77.846283,123.417610 
	C77.268875,122.895042 76.691467,122.372475 76.068626,121.935486 
	C76.068626,121.935486 76.164185,121.919456 75.959404,121.248741 
	C73.975204,118.538063 71.991005,115.827377 70.080444,112.386803 
	C69.433212,106.692825 68.785973,100.998856 68.696053,95.131691 
	C68.777695,94.092293 68.859344,93.052902 69.122353,91.678207 
	C69.122353,91.678207 69.120064,91.297012 69.678802,91.119461 
	C69.903275,90.827614 70.127747,90.535767 70.146858,90.007301 
	C70.146858,90.007301 70.318268,90.269554 70.815964,89.824661 
	C71.259232,88.567299 71.702507,87.309929 72.057335,86.050545 
	C72.057335,86.050545 72.099937,86.128082 72.642227,85.745316 
	C73.798538,83.844971 74.954857,81.944626 76.027237,80.028717 
	C76.027237,80.028717 76.069534,80.102859 76.607689,79.858543 
	C77.075096,79.241211 77.542503,78.623886 78.000000,78.000000 
	C78.000000,78.000000 78.006691,78.009819 78.532509,77.841873 
	C78.863739,77.414520 79.194962,76.987175 79.285690,76.014236 
M106.682205,105.767860 
	C107.146217,105.770462 107.610222,105.773056 108.408707,106.385071 
	C110.559166,108.333527 112.709618,110.281990 114.686073,112.864525 
	C109.198456,118.554214 102.732025,120.185738 95.117546,117.929924 
	C93.806679,117.541580 92.132195,118.380623 90.625671,118.652702 
	C91.778992,119.806496 92.727501,121.495491 94.118629,122.027847 
	C103.663437,125.680496 114.587906,121.786537 120.223320,112.959099 
	C125.925308,104.027359 124.327049,92.843636 117.145042,84.974007 
	C110.909241,78.141174 95.854881,78.469795 89.809845,82.784470 
	C87.219833,84.633087 83.999878,85.616699 81.475670,87.532806 
	C80.135864,88.549835 78.980988,90.709442 78.953552,92.373238 
	C78.892403,96.081329 79.396477,99.836937 80.051811,103.504997 
	C80.476959,105.884674 81.575348,108.144058 82.372078,110.457344 
	C82.917267,110.264915 83.462448,110.072495 84.007637,109.880066 
	C83.789886,108.829964 83.494247,107.789131 83.368027,106.728134 
	C82.852043,102.390800 80.315735,97.535103 86.659721,94.970642 
	C87.467850,94.643967 88.256538,92.498047 87.962120,91.525589 
	C86.768852,87.584381 89.443604,86.198967 91.994179,84.695465 
	C99.020264,80.553726 105.537964,81.720245 111.862427,86.462769 
	C120.220207,92.730026 121.603409,104.142990 114.311745,111.525711 
	C114.428787,110.304855 115.088333,108.750198 114.575577,107.916847 
	C111.013313,102.127296 107.307945,96.415436 103.343781,90.897568 
	C102.885612,90.259827 99.697113,90.408707 99.223122,91.136429 
	C93.616745,99.743835 88.256935,108.513222 82.945724,117.308517 
	C82.571274,117.928589 83.090294,119.088188 83.193863,119.996910 
	C83.598862,120.083092 84.003860,120.169273 84.408867,120.255455 
	C87.585236,115.304535 90.761612,110.353622 94.490265,105.553833 
	C94.679375,105.528000 94.868492,105.502174 95.920593,105.775101 
	C99.267448,105.727386 102.614304,105.679672 106.682205,105.767860 
M158.714066,117.447357 
	C160.462601,114.149704 159.171753,111.931976 156.392105,109.892372 
	C153.207596,107.555702 150.758438,105.182854 150.936478,100.231133 
	C151.106339,95.506493 154.088959,93.788483 156.805450,91.805046 
	C162.151489,87.901642 157.720093,84.150902 157.225464,80.311317 
	C156.761261,76.707848 154.557510,76.002563 151.297043,75.863251 
	C141.429016,75.441605 138.122803,71.026192 140.641312,61.539955 
	C141.595627,57.945454 141.128937,55.509472 137.700104,53.717815 
	C135.951172,52.803951 134.551895,51.216434 132.797073,50.320053 
	C131.805206,49.813404 129.969650,49.540295 129.271683,50.102501 
	C124.049347,54.308968 118.586166,55.457954 112.484848,52.221092 
	C112.206093,52.073212 111.761070,51.945755 111.523666,52.065933 
	C110.697899,52.483967 109.465797,52.882198 109.276100,53.542889 
	C109.103294,54.144764 109.968155,55.651825 110.576630,55.776157 
	C116.220016,56.929279 121.904991,61.691280 127.569130,55.700081 
	C129.672897,53.474831 131.723312,54.075157 134.026749,55.915234 
	C136.168488,57.626141 137.523132,58.916409 136.424820,62.035561 
	C135.545273,64.533478 134.640091,68.102798 135.760818,70.017426 
	C138.843063,75.283142 142.151840,80.981712 150.048950,80.044151 
	C151.222839,79.904793 153.415833,81.871086 153.810989,83.244774 
	C154.337906,85.076530 154.028809,87.495773 153.211792,89.261497 
	C152.510422,90.777283 150.560028,91.695976 149.216476,92.937706 
	C146.339767,95.596413 145.913162,106.578178 149.043137,108.766029 
	C154.002716,112.232750 156.581421,115.958603 153.021362,121.816414 
	C152.858093,122.085068 152.730759,122.508980 152.824936,122.776802 
	C153.170746,123.760124 153.617188,124.708054 154.025757,125.669304 
	C154.869843,125.052597 156.085495,124.613029 156.481354,123.782646 
	C157.329208,122.004089 157.753448,120.023598 158.714066,117.447357 
z"/>
<path fill="#121212" opacity="1.000000" stroke="none" 
	d="
M158.532623,117.786575 
	C157.753448,120.023598 157.329208,122.004089 156.481354,123.782646 
	C156.085495,124.613029 154.869843,125.052597 154.025757,125.669304 
	C153.617188,124.708054 153.170746,123.760124 152.824936,122.776802 
	C152.730759,122.508980 152.858093,122.085068 153.021362,121.816414 
	C156.581421,115.958603 154.002716,112.232750 149.043137,108.766029 
	C145.913162,106.578178 146.339767,95.596413 149.216476,92.937706 
	C150.560028,91.695976 152.510422,90.777283 153.211792,89.261497 
	C154.028809,87.495773 154.337906,85.076530 153.810989,83.244774 
	C153.415833,81.871086 151.222839,79.904793 150.048950,80.044151 
	C142.151840,80.981712 138.843063,75.283142 135.760818,70.017426 
	C134.640091,68.102798 135.545273,64.533478 136.424820,62.035561 
	C137.523132,58.916409 136.168488,57.626141 134.026749,55.915234 
	C131.723312,54.075157 129.672897,53.474831 127.569130,55.700081 
	C121.904991,61.691280 116.220016,56.929279 110.576630,55.776157 
	C109.968155,55.651825 109.103294,54.144764 109.276100,53.542889 
	C109.465797,52.882198 110.697899,52.483967 111.523666,52.065933 
	C111.761070,51.945755 112.206093,52.073212 112.484848,52.221092 
	C118.586166,55.457954 124.049347,54.308968 129.271683,50.102501 
	C129.969650,49.540295 131.805206,49.813404 132.797073,50.320053 
	C134.551895,51.216434 135.951172,52.803951 137.700104,53.717815 
	C141.128937,55.509472 141.595627,57.945454 140.641312,61.539955 
	C138.122803,71.026192 141.429016,75.441605 151.297043,75.863251 
	C154.557510,76.002563 156.761261,76.707848 157.225464,80.311317 
	C157.720093,84.150902 162.151489,87.901642 156.805450,91.805046 
	C154.088959,93.788483 151.106339,95.506493 150.936478,100.231133 
	C150.758438,105.182854 153.207596,107.555702 156.392105,109.892372 
	C159.171753,111.931976 160.462601,114.149704 158.532623,117.786575 
z"/>
<path fill="#121212" opacity="1.000000" stroke="none" 
	d="
M114.829086,112.333786 
	C121.603409,104.142990 120.220207,92.730026 111.862427,86.462769 
	C105.537964,81.720245 99.020264,80.553726 91.994179,84.695465 
	C89.443604,86.198967 86.768852,87.584381 87.962120,91.525589 
	C88.256538,92.498047 87.467850,94.643967 86.659721,94.970642 
	C80.315735,97.535103 82.852043,102.390800 83.368027,106.728134 
	C83.494247,107.789131 83.789886,108.829964 84.007637,109.880066 
	C83.462448,110.072495 82.917267,110.264915 82.372078,110.457344 
	C81.575348,108.144058 80.476959,105.884674 80.051811,103.504997 
	C79.396477,99.836937 78.892403,96.081329 78.953552,92.373238 
	C78.980988,90.709442 80.135864,88.549835 81.475670,87.532806 
	C83.999878,85.616699 87.219833,84.633087 89.809845,82.784470 
	C95.854881,78.469795 110.909241,78.141174 117.145042,84.974007 
	C124.327049,92.843636 125.925308,104.027359 120.223320,112.959099 
	C114.587906,121.786537 103.663437,125.680496 94.118629,122.027847 
	C92.727501,121.495491 91.778992,119.806496 90.625671,118.652695 
	C92.132195,118.380623 93.806679,117.541580 95.117546,117.929924 
	C102.732025,120.185738 109.198456,118.554214 114.763046,112.565468 
	C114.840027,112.266411 114.829086,112.333786 114.829086,112.333786 
z"/>
<path fill="#E22E1E" opacity="1.000000" stroke="none" 
	d="
M62.610798,125.916718 
	C66.920975,130.600647 68.099495,135.914749 65.388702,142.491409 
	C66.338097,144.007202 67.730385,144.953979 69.122665,145.900742 
	C69.122665,145.900742 69.019333,145.974533 69.046501,146.216370 
	C69.702408,146.679291 70.331154,146.900375 70.959900,147.121460 
	C71.420258,147.124908 71.880615,147.128357 72.871605,147.336319 
	C73.931427,147.018112 74.460625,146.495392 74.989822,145.972672 
	C74.989822,145.972672 74.996056,146.004730 75.373825,146.007782 
	C84.940353,142.617126 89.701431,144.437225 94.911644,153.291672 
	C95.582939,154.432510 96.166451,155.842316 97.192291,156.514694 
	C99.822021,158.238327 102.711655,159.965897 104.931953,155.832596 
	C104.986267,155.668686 105.040588,155.504776 105.436325,155.042984 
	C105.970177,154.533386 106.047173,154.285751 106.008720,154.002182 
	C106.008720,154.002182 106.000305,154.000870 106.349945,153.952805 
	C110.355186,145.673203 116.935387,143.281754 125.354630,144.562683 
	C125.354630,144.562683 125.150467,145.010712 125.252518,145.142441 
	C127.361687,146.644211 128.642258,150.859116 131.992661,146.969482 
	C131.992661,146.969482 131.996841,147.005630 132.214554,146.955811 
	C132.738892,146.760651 132.932831,146.523270 133.014114,146.193817 
	C133.014114,146.193817 133.266922,145.895538 133.837891,145.886597 
	C137.814316,144.999756 138.324921,142.976990 137.145065,139.857635 
	C136.416138,137.930481 136.321823,135.763306 135.942612,133.703873 
	C136.677048,133.594711 137.411484,133.485550 138.145935,133.376373 
	C138.760452,137.916138 139.374969,142.455887 139.989487,146.995636 
	C139.989487,146.995636 139.999069,146.999390 139.638382,146.983551 
	C138.539413,147.678635 137.801132,148.389572 137.062851,149.100510 
	C137.062851,149.100510 137.025970,149.016800 136.814240,149.088379 
	C136.390701,149.417816 136.178909,149.675674 135.967102,149.933548 
	C135.967102,149.933548 135.983170,150.002686 135.606476,149.978607 
	C134.490082,150.645355 133.750397,151.336197 133.010712,152.027039 
	C133.010712,152.027039 133.001389,151.997025 132.640976,151.981262 
	C130.271515,150.923935 128.224274,149.949234 126.260704,148.828003 
	C120.834656,145.729630 116.239532,146.162613 113.068504,150.148666 
	C112.995964,150.308380 112.923424,150.468079 112.332764,150.865448 
	C111.104172,151.987885 110.144951,152.769943 109.729256,153.776474 
	C108.411087,156.968170 107.861771,160.206741 102.899963,160.198044 
	C97.836853,160.189163 94.143143,159.298157 92.606743,154.023346 
	C92.329735,153.072311 92.175385,151.736435 91.501518,151.310440 
	C88.554878,149.447693 85.567963,146.982391 82.332405,146.499405 
	C80.470184,146.221405 78.105415,149.310028 75.966858,150.883224 
	C75.966858,150.883224 75.721977,151.135590 75.255234,151.171021 
	C74.528000,151.480026 74.267509,151.753601 74.007011,152.027161 
	C74.007011,152.027161 74.003624,151.995453 73.626762,151.982193 
	C71.720695,151.741089 70.191483,151.513245 68.662277,151.285400 
	C68.662277,151.285400 68.792351,151.251572 68.713562,150.988770 
	C68.066124,150.500290 67.497467,150.274612 66.928810,150.048935 
	C66.928810,150.048935 66.989861,150.000992 66.939407,149.680847 
	C66.132446,149.070999 65.375938,148.781311 64.619431,148.491638 
	C64.619431,148.491638 64.967033,148.248398 64.786201,148.017593 
	C64.031013,147.557404 63.456665,147.328018 62.882309,147.098633 
	C62.882309,147.098648 62.982826,147.014709 62.939453,146.674866 
	C63.042252,143.669312 62.895287,140.945358 63.410652,138.353058 
	C64.020638,135.284821 64.261154,132.640015 60.931355,131.040146 
	C60.931355,131.040146 61.001369,131.011169 60.985306,130.704330 
	C60.269253,129.620422 59.569263,128.843353 58.869278,128.066284 
	C58.869278,128.066284 58.961658,128.032562 58.915630,127.706467 
	C56.920189,127.146614 54.970772,126.912865 53.021358,126.679123 
	C52.573566,126.689743 52.125771,126.700363 51.261837,126.298523 
	C46.381390,124.224548 45.575680,119.985893 44.329906,116.207413 
	C44.066986,115.409973 45.403561,114.085182 46.018501,113.381058 
	C47.346062,116.177086 48.658268,118.595436 49.970474,121.013794 
	C49.970470,121.013794 50.004372,121.002777 50.067066,121.390411 
	C51.108845,122.192924 52.062565,122.687790 53.071720,123.007874 
	C56.240196,124.012856 59.429539,124.952042 62.610798,125.916718 
z"/>
<path fill="#CC4F44" opacity="1.000000" stroke="none" 
	d="
M96.012787,133.163803 
	C100.472374,132.886353 104.987274,132.959778 109.381401,132.267090 
	C123.813271,129.992126 131.166473,120.337578 133.947052,106.937950 
	C136.756744,93.398026 130.780350,80.404266 119.220680,72.936111 
	C118.134338,72.234268 117.056839,71.518753 115.975235,70.809593 
	C116.215271,70.312103 116.455299,69.814606 116.695328,69.317116 
	C119.231865,70.569366 122.110992,71.400108 124.251358,73.139778 
	C143.337082,88.652496 141.482193,118.494537 120.586540,131.506973 
	C113.745125,135.767349 106.378830,138.886505 97.799591,137.551910 
	C98.762451,137.138870 99.882530,137.063980 101.406845,136.993134 
	C103.397392,136.874695 104.983711,136.752213 106.570023,136.629730 
	C106.566727,136.272034 106.563431,135.914352 106.560135,135.556656 
	C105.707169,135.372833 104.854195,135.189011 103.738617,134.721817 
	C101.636177,134.318954 99.796333,134.199478 97.676819,134.046997 
	C96.935692,133.730606 96.474236,133.447205 96.012787,133.163803 
z"/>
<path fill="#121212" opacity="1.000000" stroke="none" 
	d="
M93.937988,105.402710 
	C90.761612,110.353622 87.585236,115.304535 84.408867,120.255455 
	C84.003860,120.169273 83.598862,120.083092 83.193863,119.996910 
	C83.090294,119.088188 82.571274,117.928589 82.945724,117.308517 
	C88.256935,108.513222 93.616745,99.743835 99.223122,91.136429 
	C99.697113,90.408707 102.885612,90.259827 103.343781,90.897568 
	C107.307945,96.415436 111.013313,102.127296 114.575577,107.916847 
	C115.088333,108.750198 114.428787,110.304855 114.570419,111.929749 
	C114.829086,112.333786 114.840027,112.266411 114.850052,112.248428 
	C112.709618,110.281990 110.559166,108.333527 108.212036,105.798729 
	C107.330627,105.352249 106.645897,105.492104 105.961159,105.631966 
	C102.614304,105.679672 99.267448,105.727386 95.503204,105.389259 
	C94.906113,104.764130 94.726410,104.524841 94.546707,104.285553 
	C94.343803,104.657936 94.140892,105.030319 93.937988,105.402710 
M99.759476,101.222473 
	C101.192993,101.222473 102.626511,101.222473 105.038826,101.222473 
	C103.274513,98.611458 102.012016,96.743088 100.526634,94.544861 
	C99.194252,96.665543 98.173248,98.167168 97.355042,99.772186 
	C97.267342,99.944229 98.360954,100.718475 99.759476,101.222473 
M105.338127,102.456635 
	C105.338127,102.456635 105.580132,102.582474 105.580132,102.582474 
	C105.580132,102.582474 105.533684,102.301872 105.338127,102.456635 
z"/>
<path fill="#E12E1E" opacity="1.000000" stroke="none" 
	d="
M94.251236,53.529949 
	C94.251236,53.529949 94.277473,53.815083 93.798309,53.941742 
	C90.522743,55.342007 87.726341,56.615612 84.525467,57.922909 
	C81.071426,57.309204 78.021858,56.661808 74.972282,56.014416 
	C74.972282,56.014416 74.995346,55.995651 74.973923,55.722786 
	C74.311096,55.263145 73.669678,55.076370 73.028267,54.889595 
	C72.569061,54.882210 72.109856,54.874828 71.118553,54.662430 
	C70.084480,55.009758 69.582512,55.562107 69.080536,56.114452 
	C69.080536,56.114452 69.013275,56.013142 68.732468,56.041199 
	C68.070839,56.507290 67.690018,56.945324 67.309204,57.383354 
	C67.309204,57.383358 67.206703,57.258316 66.902863,57.315681 
	C66.124977,57.987061 65.122459,58.769531 65.256409,59.189747 
	C67.168968,65.189903 65.501945,70.668892 63.045464,76.064491 
	C63.045464,76.064491 62.994061,76.021408 62.648540,76.077530 
	C60.340916,76.765785 58.338970,77.297562 56.427212,78.056503 
	C54.244465,78.923027 52.142014,79.991814 50.004673,80.972702 
	C50.004673,80.972710 50.009399,81.001038 49.664127,81.043457 
	C48.224178,82.396446 47.129498,83.707024 46.018105,85.007660 
	C46.001389,84.997719 45.971176,84.973221 45.970161,84.561295 
	C46.117046,78.811516 48.486118,76.730400 54.735485,75.933594 
	C56.194363,75.747581 57.530209,74.596603 58.922661,73.889595 
	C58.922661,73.889595 58.974476,73.963715 59.244156,73.843826 
	C59.994637,72.797653 60.475437,71.871368 60.956238,70.945084 
	C60.956238,70.945084 61.002884,70.993950 61.362335,70.944733 
	C65.642792,68.719582 63.714821,65.289322 63.539749,62.260899 
	C63.397198,59.794899 63.122620,57.336525 62.906590,54.874771 
	C62.906590,54.874771 62.971455,54.967842 63.178421,54.892387 
	C63.593399,54.547810 63.801411,54.278690 64.009422,54.009571 
	C64.009422,54.009571 64.000000,54.000000 64.363266,54.014526 
	C65.463913,53.320362 66.201302,52.611671 66.938683,51.902977 
	C66.938683,51.902977 66.985283,51.991295 67.274384,51.965427 
	C67.946365,51.498199 68.329231,51.056835 68.712105,50.615475 
	C68.712105,50.615475 68.931412,50.910534 69.192322,50.858902 
	C70.983467,50.527977 72.513695,50.248684 74.043930,49.969391 
	C74.043930,49.969391 74.005127,50.003517 74.055664,50.332611 
	C75.745163,51.436928 77.384117,52.212147 79.023079,52.987366 
	C79.023079,52.987366 79.002647,53.003353 79.138687,53.303535 
	C80.927895,54.028591 82.591125,54.849144 84.232399,54.807327 
	C90.172966,54.655972 92.742775,50.073593 94.426956,45.526737 
	C96.556160,39.778439 101.041008,42.112648 104.430199,42.249660 
	C106.359207,42.327648 108.178810,45.111862 110.047676,46.677418 
	C109.687355,47.107491 109.327026,47.537563 108.966698,47.967636 
	C107.604454,47.339409 106.242210,46.711185 104.879959,46.082962 
	C104.879959,46.082962 104.967445,46.024113 104.898056,45.686909 
	C101.744217,43.678577 98.693436,42.162655 97.030052,47.041634 
	C97.030052,47.041634 96.994362,47.011677 96.689507,47.172062 
	C95.673515,49.398281 94.962379,51.464115 94.251236,53.529949 
z"/>
<path fill="#D73A2B" opacity="1.000000" stroke="none" 
	d="
M72.830017,124.062233 
	C64.644318,115.005753 63.945747,104.082283 65.517242,92.273087 
	C66.651085,89.847725 67.281738,87.867493 67.912392,85.887260 
	C67.912392,85.887260 67.961998,85.963341 68.248138,85.825333 
	C69.001419,84.428787 69.468544,83.170242 69.935677,81.911697 
	C69.935677,81.911697 69.985382,81.977867 70.201973,81.844795 
	C70.629990,81.197380 70.841423,80.683044 71.052856,80.168709 
	C71.186508,79.852859 71.320160,79.537010 72.000420,78.975006 
	C74.824806,76.306389 77.102585,73.883926 79.380363,71.461456 
	C79.380363,71.461456 79.499298,71.452660 79.827286,71.506950 
	C80.330696,71.246773 80.506111,70.932304 80.681526,70.617836 
	C80.681526,70.617836 80.790848,70.724014 81.061340,70.710106 
	C82.170830,70.034515 83.009827,69.372833 83.848824,68.711143 
	C83.848824,68.711143 83.875793,68.819252 84.213242,68.840561 
	C89.126251,67.558968 93.701805,66.256073 98.277359,64.953178 
	C98.454254,65.521393 98.631142,66.089607 98.808029,66.657822 
	C97.481812,67.107925 96.125633,67.486191 94.835938,68.023903 
	C92.532379,68.984299 90.268936,70.040894 87.988716,71.057266 
	C87.988716,71.057266 87.843407,71.246201 87.347672,71.182526 
	C85.917015,71.784767 84.982101,72.450684 84.047180,73.116608 
	C84.047180,73.116608 84.035660,73.029335 83.731758,73.049431 
	C82.647804,73.774117 81.867744,74.478706 81.087692,75.183296 
	C81.087692,75.183296 81.072876,75.089500 80.774841,75.101837 
	C80.170013,75.591324 79.863220,76.068466 79.556427,76.545609 
	C79.466179,76.368484 79.375938,76.191360 79.083160,76.218239 
	C78.589310,76.951431 78.298004,77.480629 78.006691,78.009819 
	C78.006691,78.009819 78.000000,78.000000 77.676041,78.043091 
	C76.924568,78.758415 76.497047,79.430634 76.069534,80.102859 
	C76.069534,80.102859 76.027237,80.028717 75.745331,80.157593 
	C74.342255,82.233673 73.221100,84.180878 72.099937,86.128082 
	C72.099937,86.128082 72.057335,86.050545 71.795166,86.218147 
	C71.128090,87.680351 70.723175,88.974953 70.318268,90.269554 
	C70.318268,90.269554 70.146858,90.007301 69.949005,90.166992 
	C69.540794,90.650131 69.330429,90.973572 69.120056,91.297012 
	C69.120064,91.297012 69.122353,91.678207 68.772339,92.090584 
	C68.327797,93.436935 68.233269,94.370903 68.138733,95.304878 
	C68.785973,100.998856 69.433212,106.692825 70.174881,113.064484 
	C72.234276,116.467926 74.199226,119.193695 76.164185,121.919456 
	C76.164185,121.919456 76.068626,121.935486 76.091705,122.229721 
	C76.752556,123.009705 77.390335,123.495461 78.028122,123.981216 
	C78.028122,123.981216 77.999695,124.000305 78.038086,124.312607 
	C78.557007,124.875893 79.037537,125.126884 79.518066,125.377869 
	C79.518066,125.377869 79.578545,125.477448 79.413277,125.845139 
	C78.414871,126.885651 77.581741,127.558479 76.748604,128.231308 
	C76.748604,128.231308 76.849648,128.151184 76.780769,127.883759 
	C75.726868,126.792648 74.741837,125.968956 73.756813,125.145264 
	C73.756813,125.145264 73.876160,125.115471 73.800674,124.901291 
	C73.426804,124.478813 73.128410,124.270523 72.830017,124.062233 
z"/>
<path fill="#CF463C" opacity="1.000000" stroke="none" 
	d="
M104.965118,46.420681 
	C106.242210,46.711185 107.604454,47.339409 108.966698,47.967636 
	C109.327026,47.537563 109.687355,47.107491 110.047676,46.677418 
	C108.178810,45.111862 106.359207,42.327648 104.430199,42.249660 
	C101.041008,42.112648 96.556160,39.778439 94.426956,45.526737 
	C92.742775,50.073593 90.172966,54.655972 84.232399,54.807327 
	C82.591125,54.849144 80.927895,54.028591 79.140213,53.291054 
	C84.419609,54.657440 89.045517,52.516598 91.406250,47.538666 
	C92.500465,45.231369 93.728584,41.739620 95.533798,41.277763 
	C99.269310,40.322060 103.710342,40.204487 107.302536,41.408749 
	C109.129791,42.021320 109.809761,46.223351 110.795494,48.881710 
	C110.880219,49.110203 108.882088,50.548294 108.665764,50.379700 
	C107.330727,49.339249 106.229332,47.999001 104.965118,46.420681 
z"/>
<path fill="#D34337" opacity="1.000000" stroke="none" 
	d="
M76.832237,128.490921 
	C77.581741,127.558479 78.414871,126.885651 79.471512,125.843552 
	C83.849670,125.030533 87.915016,124.762627 88.799141,130.519562 
	C87.348679,132.203583 86.164963,133.601471 84.562996,135.006516 
	C82.747810,135.014603 81.350868,135.015533 79.953934,135.016479 
	C79.592918,134.706711 79.231903,134.396942 78.883095,133.445526 
	C78.580666,131.875717 78.266029,130.947571 77.951401,130.019409 
	C77.606224,129.596451 77.261047,129.173492 76.832237,128.490921 
M81.588974,129.515579 
	C81.588974,129.515579 81.477165,129.580841 81.588974,129.515579 
z"/>
<path fill="#CE483D" opacity="1.000000" stroke="none" 
	d="
M76.319229,150.855743 
	C78.105415,149.310028 80.470184,146.221405 82.332405,146.499405 
	C85.567963,146.982391 88.554878,149.447693 91.501518,151.310440 
	C92.175385,151.736435 92.329735,153.072311 92.606743,154.023346 
	C94.143143,159.298157 97.836853,160.189163 102.899963,160.198044 
	C107.861771,160.206741 108.411087,156.968170 109.729256,153.776474 
	C110.144951,152.769943 111.104172,151.987885 112.129562,151.032593 
	C112.274971,151.602234 112.167809,152.266998 111.926476,152.878830 
	C108.698761,161.061691 104.697090,163.247803 96.036423,160.941391 
	C94.567528,160.550232 93.563461,158.269409 92.429993,156.795959 
	C90.624596,154.449036 89.291039,151.526947 87.033363,149.789764 
	C83.624588,147.166870 79.890053,148.038315 76.319229,150.855743 
z"/>
<path fill="#E12E1E" opacity="1.000000" stroke="none" 
	d="
M51.520645,90.761734 
	C51.520645,90.761734 51.832874,90.888847 52.003700,91.243118 
	C52.368176,91.854248 52.625072,91.998543 52.945217,92.030281 
	C52.945217,92.030281 52.994038,91.996521 53.081207,92.254868 
	C53.452358,92.672119 53.736340,92.831017 54.020325,92.989914 
	C54.020325,92.989914 54.000179,93.000748 53.993271,93.459419 
	C53.989899,98.946648 53.993431,103.975204 53.996964,109.003761 
	C53.996964,109.003761 53.999702,108.999603 53.653458,109.013351 
	C52.202332,109.354050 51.097458,109.680984 50.033543,109.622177 
	C52.351368,105.309448 53.012032,101.266502 50.950375,97.028244 
	C50.950375,97.028244 51.003586,97.013985 51.007065,96.656616 
	C50.004910,95.531212 48.999271,94.763184 47.993629,93.995163 
	C47.644802,93.977509 47.362617,93.831276 47.035847,92.964890 
	C46.191597,91.294609 44.967472,90.264885 44.853687,89.124382 
	C44.720669,87.791092 45.555969,86.361206 45.971176,84.973221 
	C45.971176,84.973221 46.001389,84.997719 46.161022,85.332916 
	C47.393505,88.040253 47.666859,91.228592 51.520645,90.761734 
z"/>
<path fill="#CF463C" opacity="1.000000" stroke="none" 
	d="
M50.886658,97.385864 
	C53.012032,101.266502 52.351368,105.309448 50.038013,109.617668 
	C50.001526,109.998894 50.010746,109.992241 49.758068,109.983612 
	C49.336903,109.974350 49.168415,109.973724 48.657051,110.006668 
	C47.543877,111.027870 46.773586,112.015503 46.001648,113.001602 
	C46.000000,113.000061 46.003151,113.003380 46.003151,113.003380 
	C45.403561,114.085182 44.066986,115.409973 44.329906,116.207413 
	C45.575680,119.985893 46.381390,124.224548 50.939323,126.196808 
	C47.401382,127.167694 45.482044,125.537094 44.739079,122.028336 
	C44.366554,120.269043 43.768734,118.523796 43.026062,116.883934 
	C41.704414,113.965683 42.397038,111.645073 45.051937,110.124077 
	C49.953445,107.315956 51.532230,103.096909 50.886658,97.385864 
z"/>
<path fill="#CF483C" opacity="1.000000" stroke="none" 
	d="
M104.504715,155.860336 
	C102.711655,159.965897 99.822021,158.238327 97.192291,156.514694 
	C96.166451,155.842316 95.582939,154.432510 94.911644,153.291672 
	C89.701431,144.437225 84.940353,142.617126 75.360474,145.998016 
	C82.491226,140.223740 92.694870,142.563156 95.764153,151.375809 
	C97.424667,156.143524 100.380699,156.114105 104.504715,155.860336 
z"/>
<path fill="#CE483D" opacity="1.000000" stroke="none" 
	d="
M140.364227,146.897598 
	C139.374969,142.455887 138.760452,137.916138 138.145935,133.376373 
	C137.411484,133.485550 136.677048,133.594711 135.942612,133.703873 
	C136.321823,135.763306 136.416138,137.930481 137.145065,139.857635 
	C138.324921,142.976990 137.814316,144.999756 134.028687,145.843903 
	C136.422012,143.791794 136.262390,141.232559 135.216431,138.347809 
	C134.659103,136.810699 134.264450,135.102539 134.333984,133.494858 
	C134.371948,132.617477 135.375107,131.454620 136.238205,131.049469 
	C136.865891,130.754837 138.212418,131.238464 138.828674,131.813919 
	C140.670074,133.533417 141.924911,144.360275 140.364227,146.897598 
z"/>
<path fill="#CF463C" opacity="1.000000" stroke="none" 
	d="
M45.970161,84.561295 
	C45.555969,86.361206 44.720669,87.791092 44.853687,89.124382 
	C44.967472,90.264885 46.191597,91.294609 46.942169,92.739044 
	C43.977036,91.380714 41.119034,89.552361 42.983639,85.379143 
	C44.904774,81.079422 44.130013,74.513954 51.858387,75.041611 
	C53.933666,75.183304 56.063911,74.519974 58.545792,74.057899 
	C57.530209,74.596603 56.194363,75.747581 54.735485,75.933594 
	C48.486118,76.730400 46.117046,78.811516 45.970161,84.561295 
z"/>
<path fill="#D34135" opacity="1.000000" stroke="none" 
	d="
M88.384506,71.028755 
	C90.268936,70.040894 92.532379,68.984299 94.835938,68.023903 
	C96.125633,67.486191 97.481812,67.107925 98.808029,66.657822 
	C98.631142,66.089607 98.454254,65.521393 98.277359,64.953178 
	C93.701805,66.256073 89.126251,67.558968 84.161163,68.820786 
	C88.221321,67.244530 92.614380,65.490692 97.156952,64.314026 
	C98.437210,63.982403 100.155624,65.342323 101.673073,65.926392 
	C100.406548,66.898842 99.276573,68.272789 97.844917,68.759750 
	C94.909012,69.758354 91.811356,70.281410 88.384506,71.028755 
z"/>
<path fill="#CF483C" opacity="1.000000" stroke="none" 
	d="
M125.161743,144.279556 
	C116.935387,143.281754 110.355186,145.673203 106.352676,153.957321 
	C108.622139,145.028427 118.018631,140.066605 125.161743,144.279556 
z"/>
<path fill="#D1493D" opacity="1.000000" stroke="none" 
	d="
M63.340641,75.904587 
	C65.501945,70.668892 67.168968,65.189903 65.256409,59.189747 
	C65.122459,58.769531 66.124977,57.987061 66.979576,57.341179 
	C67.264595,58.896534 66.627571,60.703949 67.167877,62.032600 
	C69.429619,67.594429 67.568932,71.887505 63.340641,75.904587 
z"/>
<path fill="#CE483D" opacity="1.000000" stroke="none" 
	d="
M113.454056,150.114136 
	C116.239532,146.162613 120.834656,145.729630 126.260704,148.828003 
	C128.224274,149.949234 130.271515,150.923935 132.654266,151.990005 
	C131.152908,151.909271 128.717560,152.520157 127.503395,151.570206 
	C123.111588,148.134125 118.701859,147.761276 113.454056,150.114136 
z"/>
<path fill="#D73A2B" opacity="1.000000" stroke="none" 
	d="
M84.981247,134.999359 
	C86.164963,133.601471 87.348679,132.203583 88.818604,130.889877 
	C89.269928,131.063995 89.435043,131.153931 89.898758,131.722260 
	C91.791740,132.488205 93.386116,132.775742 94.980499,133.063278 
	C95.155769,133.046646 95.331032,133.030014 95.759544,133.088593 
	C96.474236,133.447205 96.935692,133.730606 97.635132,134.388458 
	C96.894112,135.214523 95.915092,135.666107 94.522247,136.092224 
	C91.066032,135.710953 88.023636,135.355164 84.981247,134.999359 
z"/>
<path fill="#CF463C" opacity="1.000000" stroke="none" 
	d="
M62.518780,54.985931 
	C63.122620,57.336525 63.397198,59.794899 63.539749,62.260899 
	C63.714821,65.289322 65.642792,68.719582 61.332836,70.928703 
	C61.157890,68.075798 61.370525,65.189606 61.586315,62.303638 
	C61.765945,59.901314 61.949276,57.499268 62.518780,54.985931 
z"/>
<path fill="#CF463C" opacity="1.000000" stroke="none" 
	d="
M54.380310,108.861481 
	C53.993431,103.975204 53.989899,98.946648 53.999165,93.450089 
	C56.544033,95.636551 56.969135,104.536278 54.380310,108.861481 
z"/>
<path fill="#CF463C" opacity="1.000000" stroke="none" 
	d="
M50.416611,80.896805 
	C52.142014,79.991814 54.244465,78.923027 56.427212,78.056503 
	C58.338970,77.297562 60.340916,76.765785 62.681610,76.082932 
	C62.372089,79.190903 60.233906,80.127319 57.227238,80.134102 
	C55.093838,80.138908 52.961407,80.576492 50.416611,80.896805 
z"/>
<path fill="#D04740" opacity="1.000000" stroke="none" 
	d="
M61.037376,131.444748 
	C64.261154,132.640015 64.020638,135.284821 63.410652,138.353058 
	C62.895287,140.945358 63.042252,143.669312 62.903488,146.729584 
	C59.173233,145.563614 61.323399,142.716949 61.358639,140.283508 
	C61.399323,137.473755 61.224590,134.660873 61.037376,131.444748 
z"/>
<path fill="#CC473D" opacity="1.000000" stroke="none" 
	d="
M62.594746,125.564507 
	C59.429539,124.952042 56.240196,124.012856 53.071720,123.007874 
	C52.062565,122.687790 51.108845,122.192924 50.057617,121.405693 
	C52.768559,121.347443 55.637962,121.351212 58.302261,122.092323 
	C59.893875,122.535042 61.164036,124.133408 62.594746,125.564507 
z"/>
<path fill="#CF463C" opacity="1.000000" stroke="none" 
	d="
M51.318462,90.423691 
	C47.666859,91.228592 47.393505,88.040253 46.177738,85.342850 
	C47.129498,83.707024 48.224178,82.396446 49.649784,81.044113 
	C49.274876,84.165695 46.678818,87.565331 51.318462,90.423691 
z"/>
<path fill="#CC4F44" opacity="1.000000" stroke="none" 
	d="
M84.562996,135.006531 
	C88.023636,135.355164 91.066032,135.710953 94.542755,136.263245 
	C95.010269,136.690491 95.020767,136.922287 95.008598,137.155106 
	C90.115341,136.647263 85.222084,136.139404 80.141380,135.324020 
	C81.350868,135.015533 82.747810,135.014603 84.562996,135.006531 
z"/>
<path fill="#D1493D" opacity="1.000000" stroke="none" 
	d="
M75.162262,56.299572 
	C78.021858,56.661808 81.071426,57.309204 84.819138,57.967148 
	C85.713737,57.999603 85.910194,58.021515 86.106651,58.043430 
	C81.990463,61.474865 78.693398,58.867260 75.162262,56.299572 
z"/>
<path fill="#D34337" opacity="1.000000" stroke="none" 
	d="
M95.327515,137.337051 
	C95.020767,136.922287 95.010269,136.690491 94.956581,136.288696 
	C95.915092,135.666107 96.894112,135.214523 97.914810,134.421463 
	C99.796333,134.199478 101.636177,134.318954 103.552246,134.909668 
	C102.753189,135.916946 101.877899,136.453003 101.002609,136.989075 
	C99.882530,137.063980 98.762451,137.138870 97.369675,137.407715 
	C96.613472,137.574097 96.129951,137.546555 95.327515,137.337051 
z"/>
<path fill="#CC473D" opacity="1.000000" stroke="none" 
	d="
M49.911560,120.612434 
	C48.658268,118.595436 47.346062,116.177086 46.018501,113.381058 
	C46.003151,113.003380 46.000000,113.000061 46.346909,113.012825 
	C47.369492,112.925926 48.045166,112.826263 48.789268,112.794250 
	C48.857693,112.861893 48.994331,112.997406 48.994331,112.997406 
	C49.280437,115.401962 49.566544,117.806519 49.911560,120.612434 
z"/>
<path fill="#CF463C" opacity="1.000000" stroke="none" 
	d="
M97.368942,46.832172 
	C98.693436,42.162655 101.744217,43.678577 104.876419,45.734982 
	C102.518723,46.287743 100.113274,46.455227 97.368942,46.832172 
z"/>
<path fill="#D34337" opacity="1.000000" stroke="none" 
	d="
M76.061798,121.584099 
	C74.199226,119.193695 72.234276,116.467926 70.138062,113.429428 
	C71.991005,115.827377 73.975204,118.538063 76.061798,121.584099 
z"/>
<path fill="#CF463C" opacity="1.000000" stroke="none" 
	d="
M86.485367,58.032646 
	C85.910194,58.021515 85.713737,57.999603 85.223610,57.933456 
	C87.726341,56.615612 90.522743,55.342007 93.685974,54.030502 
	C91.656563,55.335690 89.260315,56.678776 86.485367,58.032646 
z"/>
<path fill="#D34135" opacity="1.000000" stroke="none" 
	d="
M79.088120,71.593399 
	C77.102585,73.883926 74.824806,76.306389 72.234055,78.853447 
	C74.212677,76.560471 76.504272,74.142906 79.088120,71.593399 
z"/>
<path fill="#CF483C" opacity="1.000000" stroke="none" 
	d="
M131.624237,146.975342 
	C128.642258,150.859116 127.361687,146.644211 125.361496,144.919754 
	C127.330887,145.370621 129.293350,146.175903 131.624237,146.975342 
z"/>
<path fill="#CF483C" opacity="1.000000" stroke="none" 
	d="
M68.972351,145.592590 
	C67.730385,144.953979 66.338097,144.007202 65.025116,142.808075 
	C66.343628,143.465286 67.582832,144.374863 68.972351,145.592590 
z"/>
<path fill="#CF463C" opacity="1.000000" stroke="none" 
	d="
M49.997055,110.003403 
	C51.097458,109.680984 52.202332,109.354050 53.655811,109.012230 
	C52.484936,110.159752 50.965462,111.322159 49.220161,112.740982 
	C48.994331,112.997406 48.857693,112.861893 48.863533,112.517296 
	C48.920048,111.791817 48.970718,111.410942 49.240250,110.914032 
	C49.735306,110.592621 49.919182,110.324036 50.010746,109.992241 
	C50.010746,109.992241 50.001526,109.998894 49.997055,110.003403 
z"/>
<path fill="#CF463C" opacity="1.000000" stroke="none" 
	d="
M94.527390,53.294144 
	C94.962379,51.464115 95.673515,49.398281 96.712318,47.175293 
	C96.294502,49.031536 95.549019,51.044937 94.527390,53.294144 
z"/>
<path fill="#CF463C" opacity="1.000000" stroke="none" 
	d="
M78.851822,52.705914 
	C77.384117,52.212147 75.745163,51.436928 74.065277,50.308800 
	C75.576424,50.778744 77.128494,51.601601 78.851822,52.705914 
z"/>
<path fill="#D34135" opacity="1.000000" stroke="none" 
	d="
M72.371078,85.936699 
	C73.221100,84.180878 74.342255,82.233673 75.787292,80.165375 
	C74.954857,81.944626 73.798538,83.844971 72.371078,85.936699 
z"/>
<path fill="#D34135" opacity="1.000000" stroke="none" 
	d="
M67.649620,86.099770 
	C67.281738,87.867493 66.651085,89.847725 65.693268,91.918213 
	C66.039688,90.109741 66.713272,88.211006 67.649620,86.099770 
z"/>
<path fill="#CC4F44" opacity="1.000000" stroke="none" 
	d="
M94.692184,132.907166 
	C93.386116,132.775742 91.791740,132.488205 90.087479,131.931824 
	C91.453018,132.025696 92.928444,132.388367 94.692184,132.907166 
z"/>
<path fill="#CF463C" opacity="1.000000" stroke="none" 
	d="
M53.390602,126.806610 
	C54.970772,126.912865 56.920189,127.146614 58.891304,127.749191 
	C57.195286,127.723389 55.477566,127.328751 53.390602,126.806610 
z"/>
<path fill="#CF463C" opacity="1.000000" stroke="none" 
	d="
M73.838753,49.670013 
	C72.513695,50.248684 70.983467,50.527977 69.066437,50.724957 
	C70.330948,50.218639 71.982262,49.794640 73.838753,49.670013 
z"/>
<path fill="#CF463C" opacity="1.000000" stroke="none" 
	d="
M48.113728,94.278259 
	C48.999271,94.763184 50.004910,95.531212 50.982933,96.672844 
	C50.048153,96.218086 49.140987,95.389725 48.113728,94.278259 
z"/>
<path fill="#D04740" opacity="1.000000" stroke="none" 
	d="
M68.831245,151.601044 
	C70.191483,151.513245 71.720695,151.741089 73.639442,151.992142 
	C72.352730,151.982468 70.676468,151.949585 68.831245,151.601044 
z"/>
<path fill="#D34135" opacity="1.000000" stroke="none" 
	d="
M69.660240,82.099930 
	C69.468544,83.170242 69.001419,84.428787 68.203232,85.818588 
	C68.376389,84.729286 68.880600,83.508728 69.660240,82.099930 
z"/>
<path fill="#CF463C" opacity="1.000000" stroke="none" 
	d="
M66.627533,51.946815 
	C66.201302,52.611671 65.463913,53.320362 64.367188,54.019882 
	C64.777367,53.337364 65.546883,52.664013 66.627533,51.946815 
z"/>
<path fill="#CE483D" opacity="1.000000" stroke="none" 
	d="
M133.318054,151.981491 
	C133.750397,151.336197 134.490082,150.645355 135.580444,149.954483 
	C135.162521,150.614929 134.393951,151.275436 133.318054,151.981491 
z"/>
<path fill="#D34337" opacity="1.000000" stroke="none" 
	d="
M73.853714,125.454063 
	C74.741837,125.968956 75.726868,126.792648 76.768318,127.947021 
	C75.866707,127.439430 74.908661,126.601151 73.853714,125.454063 
z"/>
<path fill="#D34135" opacity="1.000000" stroke="none" 
	d="
M70.567116,90.047104 
	C70.723175,88.974953 71.128090,87.680351 71.839394,86.219162 
	C71.702507,87.309929 71.259232,88.567299 70.567116,90.047104 
z"/>
<path fill="#D34135" opacity="1.000000" stroke="none" 
	d="
M68.417397,95.218285 
	C68.233269,94.370903 68.327797,93.436935 68.681656,92.258232 
	C68.859344,93.052902 68.777695,94.092293 68.417397,95.218285 
z"/>
<path fill="#CE483D" opacity="1.000000" stroke="none" 
	d="
M137.372421,149.050125 
	C137.801132,148.389572 138.539413,147.678635 139.637650,146.979095 
	C139.225739,147.660233 138.453873,148.329987 137.372421,149.050125 
z"/>
<path fill="#CF463C" opacity="1.000000" stroke="none" 
	d="
M60.674591,71.089355 
	C60.475437,71.871368 59.994637,72.797653 59.199715,73.835480 
	C59.388042,73.042557 59.890491,72.138084 60.674591,71.089355 
z"/>
<path fill="#CF483C" opacity="1.000000" stroke="none" 
	d="
M70.790207,146.881470 
	C70.331154,146.900375 69.702408,146.679291 69.081795,146.163605 
	C69.600121,146.126480 70.110321,146.383987 70.790207,146.881470 
z"/>
<path fill="#292929" opacity="1.000000" stroke="none" 
	d="
M106.321686,105.699913 
	C106.645897,105.492104 107.330627,105.352249 108.044800,105.494019 
	C107.610222,105.773056 107.146217,105.770462 106.321686,105.699913 
z"/>
<path fill="#CF483C" opacity="1.000000" stroke="none" 
	d="
M74.693642,145.994202 
	C74.460625,146.495392 73.931427,147.018112 73.216965,147.331238 
	C73.486938,146.753006 73.942200,146.384384 74.693642,145.994202 
z"/>
<path fill="#D34135" opacity="1.000000" stroke="none" 
	d="
M81.395195,75.113251 
	C81.867744,74.478706 82.647804,73.774117 83.768265,73.074020 
	C83.306686,73.733414 82.504692,74.388313 81.395195,75.113251 
z"/>
<path fill="#D34135" opacity="1.000000" stroke="none" 
	d="
M84.387115,73.072144 
	C84.982101,72.450684 85.917015,71.784767 87.230896,71.158714 
	C86.648918,71.808273 85.687981,72.417969 84.387115,73.072144 
z"/>
<path fill="#D1493D" opacity="1.000000" stroke="none" 
	d="
M73.220688,55.116478 
	C73.669678,55.076370 74.311096,55.263145 74.971420,55.736958 
	C74.464600,55.797112 73.938858,55.570232 73.220688,55.116478 
z"/>
<path fill="#D34135" opacity="1.000000" stroke="none" 
	d="
M83.523254,68.758759 
	C83.009827,69.372833 82.170830,70.034515 80.986099,70.698044 
	C81.492813,70.068710 82.345245,69.437538 83.523254,68.758759 
z"/>
<path fill="#D04740" opacity="1.000000" stroke="none" 
	d="
M58.907814,128.381561 
	C59.569263,128.843353 60.269253,129.620422 60.960487,130.732971 
	C60.283268,130.277924 59.614807,129.487396 58.907814,128.381561 
z"/>
<path fill="#D04740" opacity="1.000000" stroke="none" 
	d="
M64.769989,148.743927 
	C65.375938,148.781311 66.132446,149.070999 66.923874,149.716415 
	C66.279388,149.713501 65.599968,149.354858 64.769989,148.743927 
z"/>
<path fill="#D1493D" opacity="1.000000" stroke="none" 
	d="
M69.373268,56.077484 
	C69.582512,55.562107 70.084480,55.009758 70.774147,54.668297 
	C70.529892,55.266293 70.097946,55.653404 69.373268,56.077484 
z"/>
<path fill="#D34135" opacity="1.000000" stroke="none" 
	d="
M76.338608,79.980698 
	C76.497047,79.430634 76.924568,78.758415 77.681000,78.046371 
	C77.542503,78.623886 77.075096,79.241211 76.338608,79.980698 
z"/>
<path fill="#D34337" opacity="1.000000" stroke="none" 
	d="
M77.937202,123.699417 
	C77.390335,123.495461 76.752556,123.009705 76.114418,122.186928 
	C76.691467,122.372475 77.268875,122.895042 77.937202,123.699417 
z"/>
<path fill="#CC4F44" opacity="1.000000" stroke="none" 
	d="
M77.888809,130.401505 
	C78.266029,130.947571 78.580666,131.875717 78.839737,133.200226 
	C78.464851,132.658920 78.145531,131.721268 77.888809,130.401505 
z"/>
<path fill="#CF463C" opacity="1.000000" stroke="none" 
	d="
M68.420456,50.670914 
	C68.329231,51.056835 67.946365,51.498199 67.235168,51.934525 
	C67.314163,51.528446 67.721489,51.127403 68.420456,50.670914 
z"/>
<path fill="#D04740" opacity="1.000000" stroke="none" 
	d="
M67.047012,150.321121 
	C67.497467,150.274612 68.066124,150.500290 68.682007,151.048096 
	C68.207893,151.111252 67.686554,150.852280 67.047012,150.321121 
z"/>
<path fill="#D04740" opacity="1.000000" stroke="none" 
	d="
M62.989311,147.368225 
	C63.456665,147.328018 64.031013,147.557404 64.601364,148.121674 
	C64.097015,148.183640 63.596664,147.910721 62.989311,147.368225 
z"/>
<path fill="#D34337" opacity="1.000000" stroke="none" 
	d="
M79.399872,125.138115 
	C79.037537,125.126884 78.557007,124.875893 78.047783,124.298523 
	C78.439949,124.280884 78.860809,124.589615 79.399872,125.138115 
z"/>
<path fill="#D34135" opacity="1.000000" stroke="none" 
	d="
M79.815811,76.443680 
	C79.863220,76.068466 80.170013,75.591324 80.818909,75.119522 
	C80.799072,75.530487 80.437134,75.936119 79.815811,76.443680 
z"/>
<path fill="#292929" opacity="1.000000" stroke="none" 
	d="
M94.214127,105.478271 
	C94.140892,105.030319 94.343803,104.657936 94.546707,104.285553 
	C94.726410,104.524841 94.906113,104.764130 95.071709,105.239883 
	C94.868492,105.502174 94.679375,105.528000 94.214127,105.478271 
z"/>
<path fill="#D34135" opacity="1.000000" stroke="none" 
	d="
M78.269600,77.925842 
	C78.298004,77.480629 78.589310,76.951431 79.203407,76.491028 
	C79.194962,76.987175 78.863739,77.414520 78.269600,77.925842 
z"/>
<path fill="#D1493D" opacity="1.000000" stroke="none" 
	d="
M67.595947,57.321930 
	C67.690018,56.945324 68.070839,56.507290 68.779869,56.079285 
	C68.699615,56.479706 68.291153,56.870106 67.595947,57.321930 
z"/>
<path fill="#D34135" opacity="1.000000" stroke="none" 
	d="
M70.823181,80.328751 
	C70.841423,80.683044 70.629990,81.197380 70.161186,81.837830 
	C70.133713,81.472229 70.363609,80.980515 70.823181,80.328751 
z"/>
<path fill="#CF463C" opacity="1.000000" stroke="none" 
	d="
M52.876968,91.805267 
	C52.625072,91.998543 52.368176,91.854248 52.088623,91.388718 
	C52.351242,91.152603 52.619907,91.286003 52.876968,91.805267 
z"/>
<path fill="#CF483C" opacity="1.000000" stroke="none" 
	d="
M105.833160,154.105286 
	C106.047173,154.285751 105.970177,154.533386 105.608856,154.849792 
	C105.363350,154.662308 105.435890,154.413620 105.833160,154.105286 
z"/>
<path fill="#D04740" opacity="1.000000" stroke="none" 
	d="
M74.300652,152.008636 
	C74.267509,151.753601 74.528000,151.480026 75.080032,151.185730 
	C75.112473,151.440048 74.853386,151.715073 74.300652,152.008636 
z"/>
<path fill="#D34135" opacity="1.000000" stroke="none" 
	d="
M80.451965,70.665558 
	C80.506111,70.932304 80.330696,71.246773 79.871231,71.466637 
	C79.709122,71.065903 79.920860,70.846313 80.451965,70.665558 
z"/>
<path fill="#CE483D" opacity="1.000000" stroke="none" 
	d="
M136.233032,149.912308 
	C136.178909,149.675674 136.390701,149.417816 136.854462,149.110123 
	C136.903961,149.337219 136.701462,149.614151 136.233032,149.912308 
z"/>
<path fill="#D34135" opacity="1.000000" stroke="none" 
	d="
M69.399429,91.208237 
	C69.330429,90.973572 69.540794,90.650131 70.051689,90.285309 
	C70.127747,90.535767 69.903275,90.827614 69.399429,91.208237 
z"/>
<path fill="#CF463C" opacity="1.000000" stroke="none" 
	d="
M63.740459,54.039536 
	C63.801411,54.278690 63.593399,54.547810 63.127632,54.867126 
	C63.070415,54.634716 63.270954,54.352108 63.740459,54.039536 
z"/>
<path fill="#CF463C" opacity="1.000000" stroke="none" 
	d="
M53.944870,92.740913 
	C53.736340,92.831017 53.452358,92.672119 53.070358,92.282410 
	C53.271366,92.198372 53.570389,92.345139 53.944870,92.740913 
z"/>
<path fill="#CE483D" opacity="1.000000" stroke="none" 
	d="
M132.771164,146.209503 
	C132.932831,146.523270 132.738892,146.760651 132.199158,146.946014 
	C132.029358,146.640778 132.216736,146.387146 132.771164,146.209503 
z"/>
<path fill="#D34337" opacity="1.000000" stroke="none" 
	d="
M72.897598,124.334396 
	C73.128410,124.270523 73.426804,124.478813 73.789719,124.961807 
	C73.557884,125.026535 73.261528,124.816551 72.897598,124.334396 
z"/>
<path fill="#D73A2B" opacity="1.000000" stroke="none" 
	d="
M101.406845,136.993134 
	C101.877899,136.453003 102.753189,135.916946 103.814850,135.193024 
	C104.854195,135.189011 105.707169,135.372833 106.560135,135.556656 
	C106.563431,135.914352 106.566727,136.272034 106.570023,136.629730 
	C104.983711,136.752213 103.397392,136.874695 101.406845,136.993134 
z"/>
<path fill="#EEEEEE" opacity="1.000000" stroke="none" 
	d="
M99.333023,101.217918 
	C98.360954,100.718475 97.267342,99.944229 97.355042,99.772186 
	C98.173248,98.167168 99.194252,96.665543 100.526634,94.544861 
	C102.012016,96.743088 103.274513,98.611458 105.038826,101.222473 
	C102.626511,101.222473 101.192993,101.222473 99.333023,101.217918 
z"/>
<path fill="#292929" opacity="1.000000" stroke="none" 
	d="
M105.435905,102.379257 
	C105.533684,102.301872 105.580132,102.582474 105.580132,102.582474 
	C105.580132,102.582474 105.338127,102.456635 105.435905,102.379257 
z"/>
<path fill="#D73A2B" opacity="1.000000" stroke="none" 
	d="
M81.533066,129.548218 
	C81.477165,129.580841 81.588974,129.515579 81.533066,129.548218 
z"/>
<path fill="#E22E1E" opacity="1.000000" stroke="none" 
	d="
M49.021385,111.030060 
	C48.970718,111.410942 48.920048,111.791817 48.795113,112.449646 
	C48.045166,112.826263 47.369492,112.925926 46.348553,113.014359 
	C46.773586,112.015503 47.543877,111.027870 48.659935,110.271126 
	C49.010929,110.678017 49.016155,110.854034 49.021385,111.030060 
z"/>
<path fill="#E12E1E" opacity="1.000000" stroke="none" 
	d="
M49.240250,110.914032 
	C49.016155,110.854034 49.010929,110.678017 49.002815,110.237549 
	C49.168415,109.973724 49.336903,109.974350 49.758068,109.983612 
	C49.919182,110.324036 49.735306,110.592621 49.240250,110.914032 
z"/>
</svg>