<?xml version="1.0" encoding="UTF-8"?>
<svg version="1.1" xmlns="http://www.w3.org/2000/svg" width="442" height="417">
<path d="M0 0 C145.86 0 291.72 0 442 0 C442 137.61 442 275.22 442 417 C296.14 417 150.28 417 0 417 C0 279.39 0 141.78 0 0 Z " fill="#FEFEFE" transform="translate(0,0)"/>
<path d="M0 0 C1.58119629 0.00725098 1.58119629 0.00725098 3.19433594 0.01464844 C45.40362082 0.34063921 86.06774368 16.13637679 116.54296875 45.65673828 C118.11958123 47.18015529 119.71581646 48.68125107 121.3125 50.18359375 C150.34678052 77.90280727 168.6312848 118.86897689 170.17260742 158.99121094 C171.08502263 206.00561802 157.40119298 250.15919985 124.66796875 284.8359375 C115.51008254 294.3238629 106.18515449 303.00798681 95.0625 310.125 C94.39009277 310.55603027 93.71768555 310.98706055 93.02490234 311.43115234 C54.26790784 335.90689047 7.29675251 344.56226592 -37.63183594 334.52294922 C-50.3584419 331.45505125 -62.20494872 326.88800126 -73.9375 321.125 C-75.06285156 320.58230469 -76.18820313 320.03960937 -77.34765625 319.48046875 C-90.4001727 312.83290461 -102.3658667 304.10425813 -112.93359375 293.98828125 C-114.80251863 292.07518064 -114.80251863 292.07518064 -116.9375 291.125 C-116.9375 290.465 -116.9375 289.805 -116.9375 289.125 C-117.5975 289.125 -118.2575 289.125 -118.9375 289.125 C-118.9375 288.465 -118.9375 287.805 -118.9375 287.125 C-119.5975 287.125 -120.2575 287.125 -120.9375 287.125 C-130.96633488 277.69447629 -139.13126668 264.96372099 -145.9375 253.125 C-146.43612549 252.26334229 -146.43612549 252.26334229 -146.94482422 251.38427734 C-161.03582274 226.81103291 -168.20543327 199.2258143 -168.0625 170.875 C-168.05766602 169.86139404 -168.05283203 168.84778809 -168.04785156 167.8034668 C-167.71278403 125.84295933 -153.03645653 89.02216211 -125.9375 57.125 C-124.95783668 55.89622914 -123.9785749 54.66713784 -123 53.4375 C-122.319375 52.674375 -121.63875 51.91125 -120.9375 51.125 C-120.2775 51.125 -119.6175 51.125 -118.9375 51.125 C-118.9375 50.465 -118.9375 49.805 -118.9375 49.125 C-118.2775 49.125 -117.6175 49.125 -116.9375 49.125 C-116.9375 48.465 -116.9375 47.805 -116.9375 47.125 C-107.50697629 37.09616512 -94.77622099 28.93123332 -82.9375 22.125 C-82.36306152 21.79258301 -81.78862305 21.46016602 -81.19677734 21.11767578 C-66.99209543 12.97230644 -52.51061119 7.48579821 -36.5625 3.75 C-34.95894653 3.37367432 -34.95894653 3.37367432 -33.32299805 2.98974609 C-22.23908918 0.53122392 -11.32565672 -0.05510375 0 0 Z " fill="#624FDC" transform="translate(221.9375,40.875)"/>
<path d="M0 0 C2.5 0.375 2.5 0.375 4.375 1.4375 C6.40458015 4.93288804 4.83292494 9.08133776 3.86962891 12.82446289 C3.06560736 15.68340907 2.22654423 18.52984858 1.375 21.375 C1.0651416 22.42373291 0.7552832 23.47246582 0.43603516 24.55297852 C-1.71687696 31.81647581 -3.91632443 39.06579821 -6.125 46.3125 C-6.41334717 47.26141113 -6.70169434 48.21032227 -6.9987793 49.18798828 C-8.32830793 53.55811745 -9.67035506 57.92300906 -11.05078125 62.27734375 C-15.04951407 73.76063264 -15.04951407 73.76063264 -13.66015625 85.48046875 C-12.4942488 87.68209019 -12.4942488 87.68209019 -9.5 89.375 C-6.90424401 89.56730933 -4.41482947 89.64489203 -1.8190918 89.63037109 C-1.03825226 89.63399155 -0.25741272 89.637612 0.54708862 89.64134216 C2.24293664 89.64823598 3.93880685 89.65074162 5.63466835 89.64939499 C8.32090387 89.64843027 11.00673865 89.66136601 13.69291687 89.67837524 C21.33032101 89.7246601 28.96768509 89.74924804 36.60522461 89.75585938 C41.27727234 89.76087903 45.94890312 89.78515398 50.62080956 89.82118607 C52.39932945 89.83097562 54.17790677 89.83332061 55.95644569 89.82801437 C58.44838493 89.82092981 60.9390859 89.83825424 63.4309082 89.86083984 C64.16203323 89.85266739 64.89315826 89.84449493 65.6464386 89.83607483 C70.71779305 89.91762451 73.60344906 91.17030358 77.5 94.375 C79.83105312 97.87157969 80.16381575 99.72960704 80.0703125 103.84375 C78.3759282 111.36403098 70.76465627 117.26311541 65.421875 122.4609375 C62.96539184 124.90743496 60.72287928 127.50362088 58.4609375 130.12890625 C56.11901523 132.81138694 53.72137985 135.44033612 51.3125 138.0625 C50.84900146 138.56716797 50.38550293 139.07183594 49.90795898 139.59179688 C47.40103159 142.31747809 44.88782335 145.03727508 42.37109375 147.75390625 C37.6457296 152.85653322 32.9485761 157.96615836 28.3984375 163.2265625 C25.33798285 166.69003999 22.18454178 170.06723516 19.04296875 173.45703125 C16.00243709 176.74019885 12.9857982 180.04176346 10 183.375 C6.02469946 187.81120495 1.98792332 192.18754398 -2.05859375 196.55859375 C-5.06410722 199.80883097 -8.04559609 203.0780565 -11 206.375 C-14.61305362 210.40570936 -18.26639687 214.39724148 -21.9375 218.375 C-22.45828125 218.93960938 -22.9790625 219.50421875 -23.515625 220.0859375 C-29.30085131 226.34436174 -29.30085131 226.34436174 -31.9375 226.75 C-34.5 226.375 -34.5 226.375 -36.19873047 224.63891602 C-37.80215837 221.84931247 -37.63498308 220.85884726 -36.8828125 217.77734375 C-36.67172852 216.89546387 -36.46064453 216.01358398 -36.24316406 215.10498047 C-35.0401739 210.68584906 -33.75075398 206.30594543 -32.375 201.9375 C-31.7515455 199.92610909 -31.12919838 197.91437469 -30.5078125 195.90234375 C-30.18200195 194.84901855 -29.85619141 193.79569336 -29.52050781 192.71044922 C-27.37290152 185.69116761 -25.31802966 178.64391206 -23.25341797 171.59985352 C-21.8536026 166.84626918 -20.43283581 162.12338138 -18.796875 157.4453125 C-17.67678046 154.12799348 -17.04177375 151.15488175 -17 147.625 C-16.9690625 146.74328125 -16.938125 145.8615625 -16.90625 144.953125 C-17.77763034 141.16949985 -19.4958459 139.78909004 -22.5 137.375 C-25.34439382 136.891617 -27.58810963 136.71148029 -30.42382812 136.76318359 C-31.59793495 136.75468636 -31.59793495 136.75468636 -32.79576111 136.74601746 C-35.37474927 136.73254846 -37.95232389 136.75343614 -40.53125 136.7734375 C-42.32817547 136.76793616 -44.12509465 136.75981051 -45.92199707 136.74917603 C-50.6482781 136.72629745 -55.37409649 136.73050786 -60.10040283 136.74298096 C-67.66490166 136.76129231 -75.22912966 136.75132678 -82.79356384 136.71712112 C-85.43326382 136.71101953 -88.07238187 136.72427365 -90.71203613 136.73910522 C-92.33341624 136.73615688 -93.95479526 136.73250199 -95.57617188 136.72802734 C-96.6735392 136.74196281 -96.6735392 136.74196281 -97.79307556 136.75617981 C-102.2069726 136.72175767 -104.99887596 136.10213772 -108.5 133.375 C-111.41926575 128.9457692 -111.97289814 125.62191744 -111.5 120.375 C-109.77734375 117.53125 -109.77734375 117.53125 -107.4375 114.875 C-106.20193359 113.45767578 -106.20193359 113.45767578 -104.94140625 112.01171875 C-102.42166214 109.29039512 -99.86047064 106.64088555 -97.1953125 104.0625 C-93.48378788 100.36807918 -89.94082182 96.41854184 -86.921875 92.13671875 C-86.45265625 91.55535156 -85.9834375 90.97398437 -85.5 90.375 C-84.84 90.375 -84.18 90.375 -83.5 90.375 C-83.23574219 89.78203125 -82.97148437 89.1890625 -82.69921875 88.578125 C-81.45629575 86.29470946 -80.19598354 84.90073277 -78.3125 83.125 C-75.84321782 80.72670334 -73.49872707 78.29385595 -71.25 75.6875 C-68.3078644 72.27908845 -65.2968757 68.93971535 -62.25 65.625 C-61.78255371 65.11638428 -61.31510742 64.60776855 -60.83349609 64.08374023 C-59.87200472 63.0383351 -58.91025078 61.99317139 -57.94824219 60.94824219 C-55.58808305 58.3843741 -53.23088342 55.81779704 -50.875 53.25 C-50.41641602 52.75016602 -49.95783203 52.25033203 -49.48535156 51.73535156 C-46.64008722 48.63013444 -43.81355244 45.50895698 -41 42.375 C-35.41080217 36.14930989 -29.74475942 29.99446922 -24.08398438 23.83398438 C-22.68058719 22.30635839 -21.27762998 20.77833043 -19.875 19.25 C-19.1955835 18.50979614 -19.1955835 18.50979614 -18.50244141 17.75463867 C-14.76295498 13.67464726 -11.06194036 9.56106927 -7.375 5.43359375 C-6.75625 4.75425781 -6.1375 4.07492188 -5.5 3.375 C-4.9740625 2.79621094 -4.448125 2.21742187 -3.90625 1.62109375 C-2.5 0.375 -2.5 0.375 0 0 Z " fill="#FDFDFE" transform="translate(238.5,91.625)"/>
</svg>
